<svg width="24" height="24" viewBox="0 0 24 24" fill="none" xmlns="http://www.w3.org/2000/svg">
<g clip-path="url(#clip0_59_2821)">
<path d="M22.752 9.50398L21.216 9.21598C21.024 8.63998 20.832 8.06398 20.448 7.48798L21.408 6.23998C21.696 5.85598 21.6 5.37598 21.312 4.99198L19.104 2.78398C18.816 2.49598 18.24 2.39998 17.856 2.68798L16.608 3.55198C16.032 3.26398 15.36 2.97598 14.688 2.78398L14.4 1.24798C14.304 0.76798 13.92 0.47998 13.44 0.47998H10.272C9.79198 0.47998 9.40798 0.86398 9.31198 1.24798L9.11998 2.78398C8.54398 2.87998 7.87198 3.16798 7.29598 3.55198L6.14398 2.68798C5.75998 2.39998 5.27998 2.39998 4.89598 2.78398L2.68798 4.99198C2.39998 5.27998 2.30398 5.85598 2.59198 6.23998L3.45598 7.39198C3.07198 7.96798 2.87998 8.63998 2.68798 9.31198L1.24798 9.50398C0.76798 9.59998 0.47998 9.98398 0.47998 10.464V13.632C0.47998 14.112 0.86398 14.496 1.24798 14.592L2.68798 14.784C2.87998 15.456 3.16798 16.032 3.45598 16.704L2.68798 17.856C2.39998 18.24 2.39998 18.72 2.78398 19.104L4.99198 21.312C5.27998 21.6 5.85598 21.696 6.23998 21.408L7.39198 20.544C7.96798 20.832 8.54398 21.12 9.11998 21.312L9.31198 22.752C9.40798 23.232 9.79198 23.52 10.272 23.52H13.44C13.92 23.52 14.304 23.136 14.4 22.752L14.592 21.312C15.264 21.12 15.84 20.832 16.416 20.544L17.664 21.408C18.048 21.696 18.624 21.6 18.912 21.312L21.12 19.104C21.408 18.816 21.504 18.24 21.216 17.856L20.352 16.608C20.64 16.032 20.928 15.456 21.12 14.88L22.656 14.592C23.136 14.496 23.424 14.112 23.424 13.632V10.464C23.52 9.98398 23.136 9.59998 22.752 9.50398ZM17.568 16.512C16.704 15.456 15.648 14.688 14.304 14.208C14.112 14.112 13.92 14.208 13.824 14.208C13.248 14.4 12.672 14.592 12.096 14.592C11.52 14.592 10.848 14.496 10.368 14.208C10.176 14.112 9.98398 14.112 9.88798 14.208C8.54398 14.688 7.39198 15.456 6.62398 16.512C5.66398 15.264 5.08798 13.728 5.08798 12.096C5.08798 8.15998 8.25598 4.89598 12.288 4.89598C16.224 4.89598 19.392 8.06398 19.392 12.096C19.104 13.728 18.528 15.264 17.568 16.512Z" fill="#788991"/>
<path d="M11.9999 7.29602C10.3679 7.29602 9.11987 8.64002 9.11987 10.176C9.11987 11.808 10.3679 13.056 11.9999 13.056C13.5359 13.056 14.8799 11.808 14.8799 10.176C14.8799 8.54402 13.6319 7.29602 11.9999 7.29602Z" fill="#788991"/>
</g>
<defs>
<clipPath id="clip0_59_2821">
<rect width="24" height="24" fill="white"/>
</clipPath>
</defs>
</svg>
