<svg width="28" height="26" viewBox="0 0 28 26" fill="none" xmlns="http://www.w3.org/2000/svg">
<path d="M25.5391 7.26106H23.8207C22.3593 3.79092 19.1412 1.26911 15.4364 0.787481C11.765 0.298028 8.15768 1.71115 5.7977 4.55578C5.10393 5.39211 4.55361 6.30135 4.15067 7.26106H2.46094C1.10392 7.26106 0 8.36498 0 9.722V13.0032C0 14.3603 1.10392 15.4642 2.46094 15.4642H5.82974L5.47728 14.3883C4.45107 11.2544 5.02868 8.0525 7.06103 5.60359C9.05816 3.1963 12.1079 2.0051 15.2233 2.41367C18.5181 2.84286 21.3779 5.17293 22.5111 8.35131L22.518 8.36974C22.7006 8.8552 22.8288 9.35428 22.9025 9.86779C23.1484 11.4019 23.0082 12.9568 22.4979 14.3643L22.4943 14.3741C21.2277 17.9703 17.821 20.3861 14.016 20.3861C12.6501 20.3861 11.5391 21.49 11.5391 22.847C11.5391 24.204 12.643 25.3079 14 25.3079C15.357 25.3079 16.4609 24.204 16.4609 22.847V21.7407C19.7364 20.9621 22.4876 18.6403 23.81 15.4641H25.5391C26.8961 15.4641 28 14.3602 28 13.0032V9.72194C28 8.36493 26.8961 7.26106 25.5391 7.26106Z" fill="#788991"/>
<path d="M6.61719 17.1049V18.7455H14C18.0711 18.7455 21.3828 15.4338 21.3828 11.3627C21.3828 7.29157 18.0711 3.97986 14 3.97986C9.9289 3.97986 6.61719 7.29157 6.61719 11.3627C6.61719 13.0225 7.17473 14.6263 8.19372 15.9233C7.99586 16.6146 7.3646 17.1049 6.61719 17.1049ZM16.4609 10.5424H18.1016V12.183H16.4609V10.5424ZM13.1797 10.5424H14.8203V12.183H13.1797V10.5424ZM9.89844 10.5424H11.5391V12.183H9.89844V10.5424Z" fill="#788991"/>
</svg>
